<?xml version="1.0" encoding="UTF-8" standalone="no"?>
<!DOCTYPE svg PUBLIC "-//W3C//DTD SVG 1.1//EN" "http://www.w3.org/Graphics/SVG/1.1/DTD/svg11.dtd">
<svg width="100%" height="100%" viewBox="0 0 1420 200" version="1.1" xmlns="http://www.w3.org/2000/svg" xmlns:xlink="http://www.w3.org/1999/xlink" xml:space="preserve" xmlns:serif="http://www.serif.com/" style="fill-rule:evenodd;clip-rule:evenodd;stroke-miterlimit:10;">
    <g transform="matrix(8.6089,0,0,8.60437,-1853.05,-6525.37)">
        <clipPath id="_clip1">
            <rect x="215.082" y="758.378" width="165.111" height="23.244" clip-rule="nonzero"/>
        </clipPath>
        <g clip-path="url(#_clip1)">
            <g transform="matrix(-0.965323,-0.26106,-0.26106,0.965323,248.075,773.369)">
                <path d="M-1.277,-9.858C1.192,-9.19 2.442,-6.343 2.288,-3.55C2.121,-0.483 0.499,0.659 -1.277,0.178C-3.615,-0.454 -5.053,-2.677 -4.888,-6.095C-4.748,-9.054 -3.355,-10.42 -1.277,-9.858" style="fill-rule:nonzero;"/>
            </g>
            <g transform="matrix(1,0,0,1,256.676,761.076)">
                <path d="M0,17.855L19.472,17.855L23.819,-2.598L-24.069,-2.598L-24.605,0.064C-23.37,0.111 -22.258,0.186 -21.377,0.307C-18.149,0.733 -16.631,2.034 -17.07,4.097C-17.461,5.936 -18.905,7.348 -20.916,8.582C-20.405,9.345 -17.713,12.82 -17.283,13.538L-22.044,16.633C-22.379,15.781 -25.39,9.479 -25.786,8.492C-24.675,7.909 -22.821,6.676 -22.501,5.173C-22.277,4.119 -22.803,3.11 -25.22,3.088L-27.974,15.915L-28.939,20.453L18.919,20.453L19.366,18.351L-0.106,18.351L0,17.855ZM4.493,9.524C5.284,5.801 9.629,1.294 17.718,-0.366L17.79,3.94C12.877,4.792 10.532,6.855 10.084,8.963C9.717,10.69 11.3,12.103 14.283,12.103C15.18,12.103 16.148,11.948 16.696,11.903L15.812,16.095C15.008,16.184 14.181,16.274 13.127,16.274C5.772,16.274 3.854,12.529 4.493,9.524M-15.427,8.604C-14.507,4.276 -10.38,-0.366 -3.765,-0.366C1.572,-0.366 4.285,2.594 3.236,7.528C2.516,10.914 -0.888,16.274 -8.401,16.274C-14.383,16.252 -16.189,12.192 -15.427,8.604" style="fill-rule:nonzero;"/>
            </g>
            <g transform="matrix(1,0,0,1,221.255,781.523)">
                <path d="M0,-23.045C-0.433,-22.422 -0.766,-21.753 -1.04,-21.012C-1.582,-19.427 -1.928,-17.775 -2.023,-16.11C-2.334,-12.442 -2.692,-8.833 -3.702,-5.199C-4.191,-3.322 -5.144,-1.655 -6.008,0L2.882,0L3.801,-4.454L2.632,-4.454C2.782,-5.135 4.302,-12.101 4.403,-12.572L4.794,-14.411C4.937,-15.084 5.926,-19.95 5.95,-20.376C6.155,-20.376 6.983,-20.376 7.188,-20.375L7.756,-23.045L0,-23.045Z" style="fill:rgb(255,120,0);fill-rule:nonzero;stroke:rgb(255,120,0);stroke-width:0.19px;"/>
            </g>
            <g transform="matrix(1,0,0,1,285.518,760.851)">
                <path d="M0,15.626C0.443,13.977 3.477,1.78 4.035,-0.412L4.072,-0.412C4.688,0.847 10.499,11.372 11.267,13.13L11.304,13.13C11.627,11.524 14.081,1.021 14.247,0.326L15.412,0.391C15.056,1.715 12.838,10.591 11.57,16.038L11.533,16.038C11.027,14.953 5.4,4.949 4.273,2.453L4.237,2.453C3.872,4.167 1.266,15.04 1.165,15.691L0,15.626Z" style="fill-rule:nonzero;"/>
            </g>
            <g transform="matrix(1,0,0,1,301.968,761.264)">
                <path d="M0,15.191C0.24,14.236 1.337,9.158 1.457,8.594L1.956,6.25C2.034,5.881 3.137,0.52 3.211,0L4.463,0C4.343,0.39 3.605,3.689 3.052,6.293L2.553,8.637C2.092,10.807 1.303,14.692 1.216,15.191L0,15.191Z" style="fill-rule:nonzero;"/>
            </g>
            <g transform="matrix(1,0,0,1,313.392,777.844)">
                <path d="M0,-16.58C-0.12,-16.189 -0.627,-13.976 -1.181,-11.372L-1.946,-7.769C-2.98,-2.908 -5.168,-0.846 -7.023,0L-7.299,-1.128C-5.393,-1.953 -3.882,-3.863 -3.042,-7.813L-2.277,-11.415C-2.198,-11.784 -1.326,-16.059 -1.252,-16.58L0,-16.58Z" style="fill-rule:nonzero;"/>
            </g>
            <g transform="matrix(1,0,0,1,312.719,761.373)">
                <path d="M0,15.191C0.627,14.062 7.267,0.065 7.47,-0.456L7.506,-0.456C7.727,0.933 9.316,9.136 9.615,11.024C10.919,8.962 16.332,0.911 16.774,0.217L16.811,0.217C17.022,1.996 17.819,12.543 18.145,15.082L16.957,15.647C16.842,14.019 16.027,4.948 15.949,2.973C14.424,5.295 10.038,11.892 8.993,13.433L8.956,13.433C8.487,11.306 7.315,4.948 6.998,2.799L6.962,2.799C5.796,5.338 1.317,14.8 0.953,15.647L0,15.191Z" style="fill-rule:nonzero;"/>
            </g>
            <g transform="matrix(1,0,0,1,339.588,760.874)">
                <path d="M0,15.777C-0.203,15.777 -5.502,15.582 -5.815,15.582C-5.515,14.432 -4.528,9.787 -4.422,9.288L-3.804,6.38C-3.73,6.033 -2.656,0.803 -2.605,0.391C-2.236,0.391 2.47,0.087 3.004,0L2.8,1.215C2.303,1.215 -1.039,1.345 -1.634,1.367L-2.93,7.465C-2.304,7.465 0.068,7.4 0.91,7.335L0.698,8.507C0.38,8.529 -2.479,8.464 -3.142,8.464L-4.424,14.497C-3.697,14.54 -1.243,14.605 0.207,14.54L0,15.777Z" style="fill-rule:nonzero;"/>
            </g>
            <g transform="matrix(1,0,0,1,352.762,764.323)">
                <path d="M0,9.007C-0.175,9.832 -0.498,11.524 -0.563,11.828C-1.286,12.11 -2.764,12.479 -4.605,12.479C-8.731,12.479 -10.728,9.745 -9.962,6.142C-9.418,3.581 -6.289,-1.345 1.087,-3.472L1.091,-2.191C-3.785,-1.084 -7.935,2.409 -8.733,6.164C-9.291,8.79 -7.966,11.394 -4.136,11.394C-3.178,11.394 -2.248,11.264 -1.539,11.047L-1.008,8.551C-0.764,7.401 -0.487,5.925 -0.413,5.491L0.766,5.491C0.637,6.012 0.42,7.032 0.282,7.683L0,9.007Z" style="fill-rule:nonzero;"/>
            </g>
            <g transform="matrix(1,0,0,1,361.817,760.874)">
                <path d="M0,15.777C-0.203,15.777 -5.502,15.582 -5.815,15.582C-5.515,14.432 -4.528,9.787 -4.422,9.288L-3.804,6.38C-3.73,6.033 -2.655,0.803 -2.604,0.391C-2.236,0.391 2.47,0.087 3.004,0L2.8,1.215C2.303,1.215 -1.039,1.345 -1.633,1.367L-2.93,7.465C-2.304,7.465 0.068,7.4 0.911,7.335L0.698,8.507C0.38,8.529 -2.479,8.464 -3.142,8.464L-4.424,14.497C-3.696,14.54 -1.243,14.605 0.208,14.54L0,15.777Z" style="fill-rule:nonzero;"/>
            </g>
            <g transform="matrix(1,0,0,1,364.782,760.851)">
                <path d="M0,15.626C0.443,13.977 3.477,1.78 4.035,-0.412L4.072,-0.412C4.689,0.847 10.499,11.372 11.268,13.13L11.304,13.13C11.627,11.524 14.081,1.021 14.247,0.326L15.412,0.391C15.057,1.715 12.839,10.591 11.57,16.038L11.534,16.038C11.027,14.953 5.4,4.949 4.273,2.453L4.237,2.453C3.872,4.167 1.266,15.04 1.165,15.691L0,15.626Z" style="fill-rule:nonzero;"/>
            </g>
            <g transform="matrix(0.349467,-0.936949,-0.936949,-0.349467,345.318,731.46)">
                <path d="M-33.425,-47.645L-32.895,-47.645L-68.649,48.215L-69.151,48.141L-33.425,-47.645Z" style="fill:rgb(255,120,0);fill-rule:nonzero;"/>
            </g>
        </g>
    </g>
</svg>
